<svg xmlns="http://www.w3.org/2000/svg" viewBox="0 0 900 360" role="img" aria-label="AION2 watermark">
  <defs>
    <filter id="soft" x="-20%" y="-20%" width="140%" height="140%">
      <feGaussianBlur stdDeviation="0.6"/>
    </filter>
  </defs>
  <g fill="none" stroke="#64748b" stroke-opacity="0.22" stroke-width="3" filter="url(#soft)">
    <ellipse cx="450" cy="180" rx="320" ry="106"/>
    <ellipse cx="450" cy="180" rx="260" ry="82"/>
    <path d="M132 182c124-78 262-118 414-88 94 18 164 60 222 112"/>
    <path d="M760 152c-88 74-206 118-354 92-106-18-192-66-270-126"/>
    <path d="M450 46c-22 46-34 88-32 132 2 50 24 88 60 132"/>
    <path d="M450 46c22 46 34 88 32 132-2 50-24 88-60 132"/>
  </g>
  <g fill="#64748b" fill-opacity="0.13">
    <text x="450" y="209" text-anchor="middle" font-family="Georgia, 'Times New Roman', serif" font-size="104" font-weight="700" letter-spacing="14">AION2</text>
  </g>
  <g fill="none" stroke="#64748b" stroke-opacity="0.11" stroke-width="2">
    <path d="M450 88l14 70 70 22-70 22-14 70-14-70-70-22 70-22z"/>
    <circle cx="450" cy="180" r="38"/>
    <circle cx="450" cy="180" r="62"/>
  </g>
</svg>
